<?xml version="1.0" encoding="utf-8"?>
<!-- Generator: Adobe Illustrator 16.0.3, SVG Export Plug-In . SVG Version: 6.00 Build 0)  -->
<!DOCTYPE svg PUBLIC "-//W3C//DTD SVG 1.1//EN" "http://www.w3.org/Graphics/SVG/1.1/DTD/svg11.dtd">
<svg version="1.1" id="Capa_1" xmlns="http://www.w3.org/2000/svg" xmlns:xlink="http://www.w3.org/1999/xlink" x="0px" y="0px"
	 width="100px" height="100px" viewBox="0 0 100 100" enable-background="new 0 0 100 100" xml:space="preserve">
<g>
	<polyline fill="#9ACBED" points="33.31,66.677 19.911,66.677 19.911,54.348 15.854,54.348 15.854,70.712 33.31,70.712 	"/>
	<polygon fill="#9ACBED" points="81.027,7.881 81.027,56.781 80.988,60.847 85.092,64.914 85.092,3.815 15.858,3.815 15.858,36.069 
		19.911,31.548 19.911,7.881 	"/>
	<polygon fill="#9ACBED" points="16.015,41.996 36.062,21.942 55.017,41.332 55.017,35.015 68.264,35.103 68.619,54.348 
		85.067,70.712 78.688,70.712 64.229,55.99 64.318,38.789 59.054,38.789 59.054,50.547 35.744,27.241 15.995,47.357 	"/>
	<polygon fill="#F7F8F9" points="17.055,74.467 19.191,74.467 19.191,80.634 24.979,74.467 27.694,74.467 22.611,80.009 
		27.768,87.114 25.236,87.114 21.034,81.576 19.191,83.568 19.191,87.114 17.055,87.114 	"/>
	<rect x="29.792" y="74.467" fill="#F7F8F9" width="2.136" height="12.647"/>
	<path fill="#F7F8F9" d="M46.027,85.371c-1.279,1.25-2.861,1.875-4.741,1.875c-1.885,0-3.467-0.625-4.741-1.875
		c-1.284-1.253-1.922-2.806-1.922-4.671s0.638-3.421,1.922-4.671c1.274-1.24,2.856-1.87,4.741-1.87c1.88,0,3.462,0.63,4.741,1.87
		c1.274,1.25,1.919,2.806,1.919,4.671S47.302,84.118,46.027,85.371 M44.46,77.45c-0.862-0.891-1.924-1.335-3.174-1.335
		c-1.255,0-2.317,0.444-3.179,1.335c-0.862,0.896-1.292,1.98-1.292,3.25c0,1.274,0.43,2.354,1.292,3.25
		c0.861,0.889,1.924,1.345,3.179,1.345c1.25,0,2.312-0.456,3.174-1.345c0.861-0.896,1.291-1.976,1.291-3.25
		C45.751,79.431,45.321,78.347,44.46,77.45"/>
	<path fill="#F7F8F9" d="M54.469,76.135c-0.622,0-1.135,0.122-1.532,0.378c-0.398,0.257-0.596,0.635-0.596,1.146
		c0,0.513,0.197,0.91,0.596,1.182c0.397,0.269,1.245,0.562,2.544,0.874c1.298,0.317,2.274,0.759,2.934,1.318
		c0.655,0.566,0.982,1.401,0.982,2.51c0,1.099-0.416,1.997-1.25,2.69c-0.826,0.687-1.924,1.033-3.271,1.033
		c-1.98,0-3.736-0.688-5.269-2.046l1.34-1.612c1.279,1.109,2.605,1.658,3.981,1.658c0.685,0,1.235-0.142,1.637-0.437
		c0.404-0.298,0.605-0.691,0.605-1.183c0-0.483-0.187-0.864-0.566-1.138c-0.382-0.275-1.036-0.52-1.964-0.739
		c-0.932-0.228-1.638-0.425-2.121-0.615c-0.48-0.188-0.908-0.435-1.281-0.74c-0.75-0.557-1.123-1.428-1.123-2.6
		c0-1.17,0.429-2.068,1.274-2.703c0.854-0.635,1.904-0.957,3.159-0.957c0.81,0,1.61,0.142,2.406,0.398
		c0.796,0.269,1.485,0.645,2.065,1.128l-1.143,1.608c-0.375-0.342-0.879-0.615-1.519-0.832
		C55.719,76.237,55.089,76.135,54.469,76.135"/>
	<polygon fill="#F7F8F9" points="62.042,74.467 64.177,74.467 64.177,80.634 69.963,74.467 72.678,74.467 67.595,80.009 
		72.755,87.114 70.221,87.114 66.018,81.576 64.177,83.568 64.177,87.114 62.042,87.114 	"/>
	<path fill="#F7F8F9" d="M84.802,85.371c-1.279,1.25-2.856,1.875-4.741,1.875c-1.88,0-3.462-0.625-4.741-1.875
		C74.04,84.118,73.4,82.565,73.4,80.7s0.64-3.421,1.919-4.671c1.279-1.24,2.861-1.87,4.741-1.87c1.885,0,3.462,0.63,4.741,1.87
		c1.281,1.25,1.918,2.806,1.918,4.671S86.083,84.118,84.802,85.371 M83.239,77.45c-0.86-0.891-1.924-1.335-3.179-1.335
		s-2.311,0.444-3.174,1.335c-0.86,0.896-1.295,1.98-1.295,3.25c0,1.274,0.435,2.354,1.295,3.25c0.863,0.889,1.919,1.345,3.174,1.345
		s2.318-0.456,3.179-1.345c0.863-0.896,1.293-1.976,1.293-3.25C84.532,79.431,84.103,78.347,83.239,77.45"/>
	<rect x="25.505" y="91.011" fill="#F7F8F9" width="0.684" height="5.234"/>
	<path fill="#F7F8F9" d="M27.362,96.245v-5.234H28.1l1.673,2.651c0.388,0.612,0.69,1.167,0.942,1.696l0.015-0.01
		c-0.062-0.695-0.076-1.33-0.076-2.146v-2.192h0.635v5.234h-0.681l-1.663-2.654c-0.366-0.581-0.71-1.179-0.977-1.743h-0.024
		c0.039,0.669,0.059,1.294,0.059,2.166v2.231H27.362z"/>
	<path fill="#F7F8F9" d="M36.872,93.947c-0.042-0.725-0.086-1.602-0.081-2.261h-0.02c-0.178,0.623-0.397,1.265-0.661,1.99
		l-0.926,2.534h-0.51l-0.843-2.48c-0.246-0.74-0.461-1.414-0.607-2.044H33.21c-0.013,0.659-0.052,1.536-0.098,2.317l-0.142,2.241
		h-0.64l0.358-5.229h0.862l0.891,2.534c0.218,0.635,0.398,1.211,0.53,1.758h0.024c0.127-0.527,0.317-1.102,0.549-1.758l0.928-2.534
		h0.862l0.327,5.229h-0.659L36.872,93.947z"/>
	<path fill="#F7F8F9" d="M43.166,93.576c0,1.802-1.089,2.754-2.425,2.754c-1.384,0-2.349-1.071-2.349-2.653
		c0-1.658,1.033-2.747,2.425-2.747C42.248,90.93,43.166,92.028,43.166,93.576 M39.113,93.662c0,1.118,0.605,2.121,1.665,2.121
		c1.071,0,1.677-0.993,1.677-2.178c0-1.042-0.544-2.126-1.667-2.126C39.67,91.479,39.113,92.517,39.113,93.662"/>
	<path fill="#F7F8F9" d="M44.042,91.081c0.298-0.065,0.762-0.104,1.235-0.104c0.674,0,1.108,0.114,1.436,0.381
		c0.271,0.197,0.433,0.515,0.433,0.928c0,0.505-0.332,0.942-0.882,1.14v0.02c0.493,0.125,1.074,0.54,1.074,1.309
		c0,0.454-0.176,0.791-0.439,1.05c-0.366,0.332-0.952,0.483-1.804,0.483c-0.474,0-0.825-0.029-1.053-0.056V91.081z M44.719,93.228
		h0.612c0.716,0,1.131-0.369,1.131-0.877c0-0.615-0.464-0.856-1.146-0.856c-0.313,0-0.488,0.024-0.598,0.051V93.228z M44.719,95.732
		c0.134,0.024,0.327,0.029,0.563,0.029c0.701,0,1.346-0.252,1.346-1.014c0-0.715-0.615-1.011-1.351-1.011h-0.559V95.732z"/>
	<rect x="48.249" y="91.011" fill="#F7F8F9" width="0.673" height="5.234"/>
	<polygon fill="#F7F8F9" points="50.1,91.016 50.778,91.016 50.778,95.681 53.007,95.681 53.007,96.25 50.1,96.25 	"/>
	<rect x="53.762" y="91.011" fill="#F7F8F9" width="0.678" height="5.234"/>
	<path fill="#F7F8F9" d="M56.457,94.602l-0.542,1.648h-0.694l1.777-5.234h0.812l1.782,5.234h-0.719l-0.561-1.648H56.457z
		 M58.176,94.069l-0.513-1.501c-0.117-0.335-0.196-0.647-0.273-0.957h-0.015c-0.074,0.313-0.161,0.63-0.265,0.947l-0.512,1.511
		H58.176z"/>
	<path fill="#F7F8F9" d="M60.363,91.081c0.342-0.065,0.829-0.104,1.294-0.104c0.718,0,1.187,0.134,1.509,0.427
		c0.268,0.237,0.414,0.594,0.414,0.991c0,0.691-0.435,1.155-0.985,1.336v0.026c0.404,0.137,0.644,0.513,0.767,1.053
		c0.171,0.729,0.293,1.235,0.404,1.436h-0.697c-0.084-0.146-0.205-0.599-0.352-1.248c-0.151-0.723-0.43-0.993-1.046-1.022h-0.635
		v2.271h-0.673V91.081z M61.036,93.469h0.693c0.718,0,1.178-0.397,1.178-0.996c0-0.671-0.493-0.974-1.202-0.974
		c-0.327,0-0.561,0.029-0.669,0.056V93.469z"/>
	<rect x="64.532" y="91.011" fill="#F7F8F9" width="0.675" height="5.234"/>
	<path fill="#F7F8F9" d="M70.855,93.576c0,1.802-1.094,2.754-2.431,2.754c-1.378,0-2.35-1.071-2.35-2.653
		c0-1.658,1.031-2.747,2.432-2.747C69.934,90.93,70.855,92.028,70.855,93.576 M66.799,93.662c0,1.118,0.604,2.121,1.669,2.121
		c1.07,0,1.671-0.993,1.671-2.178c0-1.042-0.538-2.126-1.666-2.126C67.354,91.479,66.799,92.517,66.799,93.662"/>
</g>
</svg>
